# xmcd
#
# Track frame offsets:
#	150
#	14885
#	28743
#	40853
#	54293
#	66613
#	79175
#	90813
#	102108
#	115690
#	127228
#	138210
#	149648
#	162528
#	177543
#	191463
#	204670
#	214048
#
# Disc length: 3030 seconds
#
# Revision: 1884826444
# Processed by: cddbd v1.5.2PL0 Copyright (c) Steve Scherf et al.
# Submitted via: EZCDAudioConverter 8.5.0.1
#
DISCID=0c0bd412
DTITLE=Glen Campbell - Simply The Best · Southern Nights His Greatest Hits
DYEAR=1995
DGENRE=Pop/Country
TTITLE0=Glen Campbell - Rhinestone Cowboy - (1975)
TTITLE1=Glen Campbell - Wichita Lineman - (1968)
TTITLE2=Glen Campbell - Galveston - (1969)
TTITLE3=Glen Campbell - Southern Nights - (1977)
TTITLE4=Glen Campbell - By The Time I Get To Phoenix - (1967)
TTITLE5=Glen Campbell - I Wanna Live - (1968)
TTITLE6=Glen Campbell - Dreams Of The Everyday Housewife - (1968)
TTITLE7=Glen Campbell - True Grit - (1969)
TTITLE8=Glen Campbell - Honey Come Back - (1970)
TTITLE9=Glen Campbell Feat. Bobbie Gentry - All I Have To Do Is Dream - (1970)
TTITLE10=Glen Campbell - It's Only Make Believe - (1970)
TTITLE11=Glen Campbell - Dream Baby (How Long Must I Dream) - (1971)
TTITLE12=Glen Campbell - Sunflower - (1977)
TTITLE13=Glen Campbell - Don't Pull Your Love - Then You Can Tell Me Goodbye -
TTITLE13=(1976)
TTITLE14=Glen Campbell - Country Boy (You Got Your Feet In L.A.) - (1975)
TTITLE15=Glen Campbell - Where's The Playground Susie? - (1969)
TTITLE16=Glen Campbell Feat. Bobbie Gentry - Let It Be Me - (1969)
TTITLE17=Glen Campbell - Gentle On My Mind - (1968)
EXTD=
EXTT0=
EXTT1=
EXTT2=
EXTT3=
EXTT4=
EXTT5=
EXTT6=
EXTT7=
EXTT8=
EXTT9=
EXTT10=
EXTT11=
EXTT12=
EXTT13=
EXTT14=
EXTT15=
EXTT16=
EXTT17=
PLAYORDER=
